<svg width="65" height="65" viewBox="0 0 65 65" fill="none" xmlns="http://www.w3.org/2000/svg">
<path d="M33.8901 2.76522C33.8901 3.78483 33.0635 4.61138 32.0439 4.61138C31.0243 4.61138 30.1978 3.78483 30.1978 2.76522C30.1978 1.74562 31.0243 0.919067 32.0439 0.919067C33.0635 0.919067 33.8901 1.74562 33.8901 2.76522Z" fill="black" fill-opacity="0.86"/>
<path d="M33.8901 63.073C33.8901 64.0926 33.0635 64.9191 32.0439 64.9191C31.0243 64.9191 30.1978 64.0926 30.1978 63.073C30.1978 62.0534 31.0243 61.2268 32.0439 61.2268C33.0635 61.2268 33.8901 62.0534 33.8901 63.073Z" fill="black" fill-opacity="0.86"/>
<path d="M62.1978 34.7653C61.1782 34.7653 60.3516 33.9387 60.3516 32.9191C60.3516 31.8995 61.1782 31.0729 62.1978 31.0729C63.2174 31.0729 64.044 31.8995 64.044 32.9191C64.044 33.9387 63.2174 34.7653 62.1978 34.7653Z" fill="black" fill-opacity="0.86"/>
<path d="M1.89004 34.7653C0.870436 34.7653 0.0438842 33.9387 0.0438843 32.9191C0.0438843 31.8995 0.870437 31.0729 1.89004 31.0729C2.90964 31.0729 3.7362 31.8995 3.7362 32.9191C3.7362 33.9387 2.90964 34.7653 1.89004 34.7653Z" fill="black" fill-opacity="0.86"/>
<path d="M10 12.6006C9.52352 12.1241 9.52352 11.3516 10 10.8751C10.4765 10.3986 11.249 10.3986 11.7255 10.8751C12.202 11.3516 12.202 12.1241 11.7255 12.6006C11.249 13.0771 10.4765 13.0771 10 12.6006Z" fill="black" fill-opacity="0.46"/>
<path d="M52.2745 54.8751C51.798 54.3986 51.798 53.6261 52.2745 53.1496C52.751 52.6732 53.5235 52.6732 54 53.1496C54.4765 53.6261 54.4765 54.3986 54 54.8751C53.5235 55.3516 52.751 55.3516 52.2745 54.8751Z" fill="black" fill-opacity="0.46"/>
<path d="M52.2745 10.8751C52.751 10.3986 53.5235 10.3986 54 10.8751C54.4765 11.3516 54.4765 12.1241 54 12.6006C53.5235 13.0771 52.751 13.0771 52.2745 12.6006C51.798 12.1241 51.798 11.3516 52.2745 10.8751Z" fill="black" fill-opacity="0.46"/>
<path d="M10 53.1496C10.4765 52.6732 11.249 52.6732 11.7255 53.1496C12.202 53.6261 12.202 54.3986 11.7255 54.8751C11.249 55.3516 10.4765 55.3516 10 54.8751C9.52352 54.3986 9.52352 53.6261 10 53.1496Z" fill="black" fill-opacity="0.46"/>
</svg>
