<svg width="1007" height="968" viewBox="0 0 1007 968" fill="none" xmlns="http://www.w3.org/2000/svg">
<g clip-path="url(#clip0)">
<path d="M312.166 877.374C311.504 878.709 310.582 879.899 309.453 880.872C308.325 881.846 307.013 882.584 305.595 883.044C304.177 883.503 302.682 883.675 301.197 883.548C299.712 883.421 298.267 882.998 296.947 882.305C295.628 881.612 294.461 880.662 293.514 879.511C292.567 878.36 291.859 877.031 291.433 875.603C291.007 874.175 290.871 872.675 291.033 871.194C291.194 869.712 291.651 868.278 292.375 866.975L323.672 807.343C339.327 776 369.965 760.357 413.607 760.357H570.632C573.597 760.357 576.441 761.535 578.538 763.632C580.635 765.729 581.813 768.573 581.813 771.539C581.813 774.504 580.635 777.349 578.538 779.446C576.441 781.543 573.597 782.721 570.632 782.721H413.607C377.848 782.721 355.193 794.283 343.576 817.529L312.166 877.374Z" fill="#7C746A"/>
<path d="M717.268 665.704C718.647 663.078 721.013 661.108 723.845 660.226C725.247 659.789 726.722 659.633 728.184 659.766C729.647 659.9 731.069 660.32 732.369 661.002C733.67 661.685 734.823 662.617 735.763 663.746C736.703 664.874 737.411 666.177 737.848 667.579C738.284 668.981 738.441 670.456 738.307 671.918C738.174 673.381 737.754 674.803 737.071 676.103L705.762 735.747C690.108 767.089 659.47 782.721 615.828 782.721H458.814C455.848 782.721 453.004 781.543 450.907 779.446C448.81 777.349 447.632 774.505 447.632 771.539C447.632 768.574 448.81 765.73 450.907 763.633C453.004 761.536 455.848 760.358 458.814 760.358H615.828C651.598 760.358 674.252 748.796 685.87 725.549L717.268 665.704V665.704Z" fill="#7C746A"/>
<path d="M525.905 782.72H503.541V771.539C503.541 758.188 510.843 749.175 514.723 749.175H517.988C499.538 730.547 490.984 704.907 492.539 673.195C492.919 665.402 499.919 659.375 508.171 659.733C516.423 660.102 522.796 666.71 522.416 674.515C520.683 709.693 533.609 732.101 561.988 744.591C564.404 745.664 566.383 747.263 567.836 749.175H592.995C596.875 749.175 604.177 758.188 604.177 771.539V782.72H570.632C570.632 785.686 569.454 788.53 567.357 790.627C565.26 792.724 562.416 793.902 559.45 793.902H537.087C534.121 793.902 531.277 792.724 529.18 790.627C527.083 788.53 525.905 785.686 525.905 782.72Z" fill="#3B3B3B"/>
<path fill-rule="evenodd" clip-rule="evenodd" d="M420.572 179.981L560.869 181.77C590.276 182.144 618.352 194.088 639.015 215.015C659.679 235.942 671.266 264.167 671.266 293.576V458.451C671.266 581.964 571.145 682.085 447.632 682.085H337.235C275.478 682.085 225.417 632.025 225.417 570.268C225.419 559.586 226.952 548.96 229.968 538.713L311.886 260.232C318.769 236.832 333.116 216.325 352.738 201.836C372.361 187.348 396.182 179.673 420.572 179.981V179.981Z" fill="url(#paint0_linear)"/>
<path fill-rule="evenodd" clip-rule="evenodd" d="M453.123 22.3633H557.213C566.703 22.3633 575.804 26.1331 582.515 32.8434C589.225 39.5538 592.995 48.6549 592.995 58.1448V176.671C592.995 186.161 589.225 195.262 582.515 201.972C575.804 208.683 566.703 212.453 557.213 212.453H313.452L368.354 79.1441C375.269 62.349 387.017 47.9862 402.106 37.8772C417.196 27.7682 434.948 22.3686 453.111 22.3633H453.123Z" fill="#3B3B3B"/>
<path fill-rule="evenodd" clip-rule="evenodd" d="M344.85 224.003C346.482 223.757 348.149 223.634 349.848 223.634H447.632C456.529 223.634 465.061 227.168 471.352 233.459C477.643 239.75 481.177 248.283 481.177 257.179V508.768C481.177 585.967 418.605 648.54 341.406 648.54H100.999L335.815 156.544L346.997 178.907L344.85 224.003Z" fill="url(#paint1_linear)"/>
<path d="M425.268 782.721H391.723V771.539C391.723 758.188 399.025 749.176 402.905 749.176H408.25C388.38 728.512 379.099 699.529 380.72 663.367C381.1 654.791 388.1 648.16 396.352 648.563C404.604 648.954 410.978 656.234 410.598 664.81C408.865 703.51 421.791 728.165 450.17 741.897C453.413 743.462 455.85 746.079 457.293 749.176H481.177C485.057 749.176 492.359 758.188 492.359 771.539V782.721H469.995C469.995 785.687 468.817 788.531 466.72 790.628C464.623 792.725 461.779 793.903 458.813 793.903H436.45C433.484 793.903 430.64 792.725 428.543 790.628C426.446 788.531 425.268 785.687 425.268 782.721Z" fill="#3B3B3B"/>
<path fill-rule="evenodd" clip-rule="evenodd" d="M550.527 145.362C570.307 145.362 615.358 117.531 615.358 106.226C615.358 94.9216 570.307 67.0903 550.527 67.0903C530.757 67.0903 514.723 84.6121 514.723 106.226C514.723 127.841 530.757 145.362 550.527 145.362Z" fill="#747474"/>
<path d="M391.724 245.998C428.777 245.998 458.814 215.961 458.814 178.908C458.814 141.855 428.777 111.817 391.724 111.817C354.671 111.817 324.633 141.855 324.633 178.908C324.633 215.961 354.671 245.998 391.724 245.998Z" fill="url(#paint2_linear)"/>
<path fill-rule="evenodd" clip-rule="evenodd" d="M481.177 335.452H302.27C302.27 391.025 347.936 436.087 404.504 436.087H481.177V335.452ZM458.814 436.087H481.177V559.086H358.179V547.345C414.68 541.743 458.814 494.064 458.814 436.087ZM258.684 636.05C184.113 767.142 109.188 898.032 33.9086 1028.72C60.2974 1038.96 82.6609 1031.51 100.999 1006.35C105.226 1023.97 114.998 1037.56 130.306 1047.16L302.27 737.994C320.205 702.794 342.122 684.131 368.007 681.996C368.79 679.401 368.701 679.592 369.651 675.957C350.888 672.525 334.093 667.661 319.277 661.354C281.93 646.348 278.967 609.952 258.684 636.05V636.05Z" fill="#3B3B3B"/>
<path fill-rule="evenodd" clip-rule="evenodd" d="M336.206 670.68C300.1 693.334 266.768 704.583 236.186 704.427L272.616 640.132C302.504 651.895 323.705 662.07 336.206 670.669V670.68Z" fill="#3B3B3B"/>
<path fill-rule="evenodd" clip-rule="evenodd" d="M481.177 89.4538C481.177 83.5226 478.821 77.8344 474.627 73.6404C470.433 69.4465 464.745 67.0903 458.814 67.0903C452.883 67.0903 447.195 69.4465 443.001 73.6404C438.807 77.8344 436.451 83.5226 436.451 89.4538" fill="#F2EBDB"/>
<path fill-rule="evenodd" clip-rule="evenodd" d="M973.173 743.584C937.904 765.417 897.245 776.983 855.765 776.983C814.285 776.983 773.627 765.417 738.357 743.584C773.627 721.752 814.285 710.186 855.765 710.186C897.245 710.186 937.904 721.752 973.173 743.584V743.584Z" fill="url(#paint3_linear)"/>
<path fill-rule="evenodd" clip-rule="evenodd" d="M994.489 581.738C969.966 615.193 936.601 641.148 898.141 656.686C859.681 672.225 817.651 676.732 776.771 669.701C801.293 636.246 834.659 610.292 873.118 594.753C911.578 579.214 953.609 574.707 994.489 581.738V581.738Z" fill="url(#paint4_linear)"/>
<path fill-rule="evenodd" clip-rule="evenodd" d="M852.285 386.211C858.602 427.207 853.362 469.153 837.154 507.336C820.947 545.518 794.413 578.426 760.535 602.36C754.219 561.364 759.459 519.419 775.667 481.236C791.874 443.053 818.407 410.146 852.285 386.211V386.211Z" fill="url(#paint5_linear)"/>
<path fill-rule="evenodd" clip-rule="evenodd" d="M268.054 546.786H481.177C481.177 560.149 478.546 573.38 473.432 585.726C468.318 598.071 460.823 609.288 451.375 618.737C441.926 628.186 430.709 635.681 418.363 640.794C406.018 645.908 392.786 648.54 379.424 648.54H112.181C139.352 586.705 200.516 546.786 268.054 546.786V546.786Z" fill="#3B3B3B"/>
<path fill-rule="evenodd" clip-rule="evenodd" d="M193.013 840.664C197.24 858.275 206.13 873.426 219.682 886.129L302.27 737.993C320.206 702.793 342.122 684.131 368.007 681.995C368.79 679.401 368.701 679.591 369.651 675.957C361.779 674.515 338.007 665.368 298.312 648.495C233.581 767.301 198.481 831.361 193.013 840.664V840.664Z" fill="#F05C3F"/>
</g>
<defs>
<linearGradient id="paint0_linear" x1="448.342" y1="179.972" x2="448.342" y2="682.085" gradientUnits="userSpaceOnUse">
<stop stop-color="#F99370"/>
<stop offset="1" stop-color="#F05A3D"/>
</linearGradient>
<linearGradient id="paint1_linear" x1="291.088" y1="156.544" x2="291.088" y2="648.54" gradientUnits="userSpaceOnUse">
<stop stop-color="#EAEBFD"/>
<stop offset="1" stop-color="#F8F8F8"/>
</linearGradient>
<linearGradient id="paint2_linear" x1="391.724" y1="111.817" x2="391.724" y2="245.998" gradientUnits="userSpaceOnUse">
<stop stop-color="#F99370"/>
<stop offset="1" stop-color="#F05A3D"/>
</linearGradient>
<linearGradient id="paint3_linear" x1="973.173" y1="743.584" x2="738.357" y2="743.584" gradientUnits="userSpaceOnUse">
<stop stop-color="#FFE566"/>
<stop offset="1" stop-color="#FFC736"/>
</linearGradient>
<linearGradient id="paint4_linear" x1="994.489" y1="581.738" x2="776.771" y2="669.701" gradientUnits="userSpaceOnUse">
<stop stop-color="#FFE566"/>
<stop offset="1" stop-color="#FFC736"/>
</linearGradient>
<linearGradient id="paint5_linear" x1="852.285" y1="386.211" x2="760.535" y2="602.36" gradientUnits="userSpaceOnUse">
<stop stop-color="#FFE566"/>
<stop offset="1" stop-color="#FFC736"/>
</linearGradient>
<clipPath id="clip0">
<rect width="1007" height="968" fill="white"/>
</clipPath>
</defs>
</svg>
