<svg width="33" height="32" viewBox="0 0 33 32" fill="none" xmlns="http://www.w3.org/2000/svg">
<path d="M29.5636 12.5305C28.9292 12.2976 28.4176 11.8147 28.1554 11.1918V11.1918C27.8984 10.581 27.905 9.89245 28.1673 9.28389C28.7146 8.01419 29.5963 5.91005 29.4798 5.7957L26.9712 3.34683C26.8513 3.23007 24.7691 4.12736 23.4961 4.69194C22.8724 4.96856 22.1634 4.98464 21.5307 4.72917V4.72917C20.9038 4.47601 20.4078 3.97885 20.149 3.3542C19.6194 2.07616 18.7338 0 18.5683 0H15.0287C14.8599 0 14.0507 2.036 13.5573 3.31959C13.3073 3.97 12.8023 4.49117 12.1567 4.75324V4.75324C11.5448 5.00164 10.8605 4.99603 10.2502 4.74368C8.95578 4.20844 6.78465 3.33542 6.6676 3.45142L4.16345 5.90327C4.04423 6.01941 4.95009 8.03723 5.52721 9.2856C5.81445 9.90694 5.83122 10.6209 5.56535 11.2517V11.2517C5.31209 11.8525 4.82632 12.3235 4.22013 12.5637C2.91981 13.079 0.743408 13.9656 0.743408 14.1269V17.5963C0.743408 17.7643 2.88042 18.5765 4.18795 19.0577C4.81924 19.29 5.32843 19.7705 5.59005 20.3902V20.3902C5.84764 21.0004 5.84133 21.6887 5.57898 22.2969C5.03161 23.5657 4.14967 25.6682 4.26505 25.7826L6.77219 28.2374C6.88991 28.352 8.96964 27.4553 10.2431 26.8905C10.8684 26.6131 11.5794 26.5974 12.2134 26.8542V26.8542C12.84 27.1079 13.3356 27.6051 13.5946 28.2296C14.1242 29.5068 15.0101 31.5812 15.1766 31.5812H18.7162C18.8838 31.5812 19.6922 29.5486 20.186 28.2649C20.437 27.6124 20.944 27.0899 21.592 26.8277V26.8277C22.2053 26.5795 22.8909 26.5857 23.5021 26.839C24.7944 27.3746 26.9578 28.2466 27.0758 28.1328L29.5829 25.681C29.7032 25.5628 28.7955 23.5458 28.2172 22.2981C27.9294 21.6771 27.9119 20.9632 28.1774 20.3323V20.3323C28.4301 19.7316 28.9154 19.2607 29.5211 19.0202C30.8218 18.5039 33 17.6148 33 17.4513V13.985C33.001 13.8183 30.8711 13.0106 29.5636 12.5305ZM22.0436 15.7899C22.0436 18.5794 19.7232 20.8505 16.8724 20.8505C14.0247 20.8505 11.7013 18.5794 11.7013 15.7899C11.7013 13.0003 14.0247 10.7323 16.8724 10.7323C19.7247 10.7338 22.0436 13.0003 22.0436 15.7899Z" fill="#D5D6DE"/>
</svg>
