<svg width="88" height="88" viewBox="0 0 88 88" fill="none" xmlns="http://www.w3.org/2000/svg">
<path d="M45.8901 13.8901C45.8901 14.9097 45.0635 15.7363 44.0439 15.7363C43.0243 15.7363 42.1978 14.9097 42.1978 13.8901C42.1978 12.8705 43.0243 12.0439 44.0439 12.0439C45.0635 12.0439 45.8901 12.8705 45.8901 13.8901Z" fill="#242424"/>
<path d="M45.8901 74.1979C45.8901 75.2175 45.0635 76.044 44.0439 76.044C43.0243 76.044 42.1978 75.2175 42.1978 74.1979C42.1978 73.1783 43.0243 72.3517 44.0439 72.3517C45.0635 72.3517 45.8901 73.1783 45.8901 74.1979Z" fill="#242424"/>
<path d="M74.1978 45.8901C73.1782 45.8901 72.3516 45.0636 72.3516 44.044C72.3516 43.0244 73.1782 42.1978 74.1978 42.1978C75.2174 42.1978 76.044 43.0244 76.044 44.044C76.044 45.0636 75.2174 45.8901 74.1978 45.8901Z" fill="#242424"/>
<path d="M13.89 45.8901C12.8704 45.8901 12.0439 45.0636 12.0439 44.044C12.0439 43.0244 12.8704 42.1978 13.89 42.1978C14.9096 42.1978 15.7362 43.0244 15.7362 44.044C15.7362 45.0636 14.9096 45.8901 13.89 45.8901Z" fill="#242424"/>
<path d="M22 23.7255C21.5235 23.249 21.5235 22.4765 22 22C22.4765 21.5235 23.249 21.5235 23.7255 22C24.202 22.4765 24.202 23.249 23.7255 23.7255C23.249 24.202 22.4765 24.202 22 23.7255Z" fill="#242424" fill-opacity="0.51"/>
<path d="M64.2745 66C63.798 65.5235 63.798 64.751 64.2745 64.2745C64.751 63.798 65.5235 63.798 66 64.2745C66.4765 64.751 66.4765 65.5235 66 66C65.5235 66.4765 64.751 66.4765 64.2745 66Z" fill="#242424" fill-opacity="0.51"/>
<path d="M64.2745 22C64.751 21.5235 65.5235 21.5235 66 22C66.4765 22.4765 66.4765 23.249 66 23.7255C65.5235 24.202 64.751 24.202 64.2745 23.7255C63.798 23.249 63.798 22.4765 64.2745 22Z" fill="#242424" fill-opacity="0.51"/>
<path d="M22 64.2745C22.4765 63.798 23.249 63.798 23.7255 64.2745C24.202 64.751 24.202 65.5235 23.7255 66C23.249 66.4765 22.4765 66.4765 22 66C21.5235 65.5235 21.5235 64.751 22 64.2745Z" fill="#242424" fill-opacity="0.51"/>
<path d="M31.3008 16.9115C31.0399 16.2902 31.332 15.575 31.9533 15.3141C32.5746 15.0532 33.2898 15.3453 33.5507 15.9666C33.8116 16.5879 33.5195 17.3031 32.8982 17.564C32.2769 17.8249 31.5617 17.5327 31.3008 16.9115Z" fill="#242424" fill-opacity="0.14"/>
<path d="M54.4493 72.0333C54.1884 71.412 54.4805 70.6968 55.1018 70.4359C55.7231 70.175 56.4383 70.4672 56.6992 71.0884C56.9601 71.7097 56.668 72.4249 56.0467 72.6858C55.4254 72.9467 54.7102 72.6546 54.4493 72.0333Z" fill="#242424" fill-opacity="0.14"/>
<path d="M71.0885 31.3008C71.7098 31.0398 72.4249 31.332 72.6858 31.9533C72.9468 32.5746 72.6546 33.2897 72.0333 33.5506C71.412 33.8115 70.6969 33.5194 70.436 32.8981C70.1751 32.2768 70.4672 31.5617 71.0885 31.3008Z" fill="#242424" fill-opacity="0.14"/>
<path d="M15.9667 54.4493C16.588 54.1884 17.3031 54.4805 17.564 55.1018C17.8249 55.7231 17.5328 56.4382 16.9115 56.6991C16.2902 56.96 15.5751 56.6679 15.3142 56.0466C15.0532 55.4253 15.3454 54.7102 15.9667 54.4493Z" fill="#242424" fill-opacity="0.14"/>
<path d="M54.0876 15.8344C54.3405 15.2098 55.0519 14.9085 55.6764 15.1614C56.301 15.4143 56.6024 16.1256 56.3495 16.7502C56.0966 17.3748 55.3852 17.6761 54.7606 17.4233C54.1361 17.1704 53.8347 16.459 54.0876 15.8344Z" fill="#242424" fill-opacity="0.14"/>
<path d="M31.6505 71.2496C31.9034 70.625 32.6147 70.3237 33.2393 70.5766C33.8639 70.8295 34.1652 71.5408 33.9124 72.1654C33.6595 72.79 32.9481 73.0913 32.3235 72.8385C31.6989 72.5856 31.3976 71.8742 31.6505 71.2496Z" fill="#242424" fill-opacity="0.14"/>
<path d="M72.1655 54.0876C72.7901 54.3405 73.0914 55.0518 72.8385 55.6764C72.5856 56.301 71.8743 56.6023 71.2497 56.3494C70.6251 56.0965 70.3238 55.3852 70.5767 54.7606C70.8296 54.136 71.5409 53.8347 72.1655 54.0876Z" fill="#242424" fill-opacity="0.14"/>
<path d="M16.7503 31.6505C17.3749 31.9033 17.6762 32.6147 17.4233 33.2393C17.1704 33.8639 16.4591 34.1652 15.8345 33.9123C15.2099 33.6594 14.9086 32.9481 15.1615 32.3235C15.4144 31.6989 16.1257 31.3976 16.7503 31.6505Z" fill="#242424" fill-opacity="0.14"/>
</svg>
