<svg width="161" height="44" viewBox="0 0 161 44" fill="none" xmlns="http://www.w3.org/2000/svg">
<path fill-rule="evenodd" clip-rule="evenodd" d="M160.273 35.2307V22.5153C160.273 17.8384 158.092 15.7922 154.312 15.7922C151.694 15.7922 149.804 16.9615 148.786 18.1307L149.368 20.1769C150.531 18.5692 152.276 17.6922 154.312 17.6922C156.783 17.6922 158.237 19.1538 158.237 22.8076V25.7307H155.766C150.677 25.7307 148.059 28.3615 148.059 33.3307C148.059 37.5692 150.24 40.0538 153.294 40.0538C155.62 40.0538 157.22 38.5922 158.383 36.3999C158.528 38.0076 158.819 38.8846 158.964 39.6153H161C160.564 38.7384 160.273 36.9846 160.273 35.2307ZM158.237 33.7692C157.365 36.2538 155.911 38.2999 153.73 38.2999C151.549 38.2999 150.095 36.3999 150.095 33.0384C150.095 28.9461 151.985 27.1922 155.766 27.1922H158.237V33.7692ZM142.68 37.8615V16.2307H132.647C132.647 16.2307 132.501 23.6846 131.92 29.3846C131.484 33.7692 130.611 36.9846 129.157 37.7153H128.139V43.9999H129.884L130.175 39.4692H142.825L143.116 43.9999H144.861V37.7153H142.68V37.8615ZM140.499 37.8615H131.629C132.792 36.3999 133.374 33.9153 133.81 29.9692C134.392 24.5615 134.537 17.9846 134.537 17.9846H140.499V37.8615ZM118.834 15.7922C114.763 15.7922 111.709 20.323 111.709 28.0692C111.709 36.1076 114.763 40.0538 118.834 40.0538C122.905 40.0538 125.958 35.523 125.958 27.7769C125.958 19.7384 122.905 15.7922 118.834 15.7922ZM118.834 38.2999C116.217 38.2999 113.89 35.2307 113.89 27.923C113.89 20.7615 116.071 17.5461 118.834 17.5461C121.596 17.5461 123.777 20.6153 123.777 27.923C123.777 34.9384 121.596 38.2999 118.834 38.2999ZM109.528 17.9846V16.2307H99.641V39.6153H101.822V17.9846H109.528ZM88.5905 15.7922C84.5193 15.7922 81.4659 20.323 81.4659 28.0692C81.4659 36.1076 84.5193 40.0538 88.5905 40.0538C92.6617 40.0538 95.7151 35.523 95.7151 27.7769C95.7151 19.7384 92.5163 15.7922 88.5905 15.7922ZM88.5905 38.2999C85.8279 38.2999 83.6469 35.2307 83.6469 27.923C83.6469 20.7615 85.8279 17.5461 88.5905 17.5461C91.3531 17.5461 93.5341 20.6153 93.5341 27.923C93.5341 34.9384 91.3531 38.2999 88.5905 38.2999ZM75.2136 39.6153H77.5401V5.99994H63V39.6153H65.3264V7.89994H75.2136V39.6153Z" fill="black"/>
<path fill-rule="evenodd" clip-rule="evenodd" d="M0.379883 21.81C0.379883 9.79212 10.1721 -6.10352e-05 22.1899 -6.10352e-05C34.2079 -6.10352e-05 44 9.79212 44 21.81H0.379883Z" fill="#FF3333"/>
<path d="M22.189 24.5363C34.2343 24.5363 43.999 23.3157 43.999 21.81C43.999 20.3043 34.2343 19.0837 22.189 19.0837C10.1436 19.0837 0.378906 20.3043 0.378906 21.81C0.378906 23.3157 10.1436 24.5363 22.189 24.5363Z" fill="#E00000"/>
<path d="M23.1022 19.0861V36.1749C23.1022 37.1391 23.1337 38.3676 23.1987 38.7962C23.4934 40.7419 24.579 41.8031 26.3127 41.8031C28.0465 41.8031 29.4634 40.4394 29.4634 38.1675V37.2588H31.281V38.1675C31.281 40.6717 29.8871 43.62 26.2828 43.62C23.9678 43.62 22.2905 42.388 21.6317 40.3184C21.4313 39.689 21.2847 37.9307 21.2847 37.1582V19.086C21.8905 19.0829 22.4964 19.0829 23.1022 19.0861Z" fill="black" fill-opacity="0.86"/>
</svg>
