<svg width="88" height="89" viewBox="0 0 88 89" fill="none" xmlns="http://www.w3.org/2000/svg">
<path d="M45.8901 14.7651C45.8901 15.7847 45.0635 16.6113 44.0439 16.6113C43.0243 16.6113 42.1978 15.7847 42.1978 14.7651C42.1978 13.7455 43.0243 12.9189 44.0439 12.9189C45.0635 12.9189 45.8901 13.7455 45.8901 14.7651Z" fill="white" fill-opacity="0.86"/>
<path d="M45.8901 75.0729C45.8901 76.0925 45.0635 76.919 44.0439 76.919C43.0243 76.919 42.1978 76.0925 42.1978 75.0729C42.1978 74.0533 43.0243 73.2267 44.0439 73.2267C45.0635 73.2267 45.8901 74.0533 45.8901 75.0729Z" fill="white" fill-opacity="0.86"/>
<path d="M74.1978 46.7651C73.1782 46.7651 72.3516 45.9386 72.3516 44.919C72.3516 43.8994 73.1782 43.0728 74.1978 43.0728C75.2174 43.0728 76.044 43.8994 76.044 44.919C76.044 45.9386 75.2174 46.7651 74.1978 46.7651Z" fill="white" fill-opacity="0.86"/>
<path d="M13.89 46.7651C12.8704 46.7651 12.0439 45.9386 12.0439 44.919C12.0439 43.8994 12.8704 43.0728 13.89 43.0728C14.9096 43.0728 15.7362 43.8994 15.7362 44.919C15.7362 45.9386 14.9096 46.7651 13.89 46.7651Z" fill="white" fill-opacity="0.86"/>
<path d="M22 24.6006C21.5235 24.1241 21.5235 23.3516 22 22.8751C22.4765 22.3986 23.249 22.3986 23.7255 22.8751C24.202 23.3516 24.202 24.1241 23.7255 24.6006C23.249 25.0771 22.4765 25.0771 22 24.6006Z" fill="white" fill-opacity="0.3"/>
<path d="M64.2745 66.8751C63.798 66.3986 63.798 65.6261 64.2745 65.1496C64.751 64.6732 65.5235 64.6732 66 65.1496C66.4765 65.6261 66.4765 66.3986 66 66.8751C65.5235 67.3516 64.751 67.3516 64.2745 66.8751Z" fill="white" fill-opacity="0.3"/>
<path d="M64.2745 22.8751C64.751 22.3986 65.5235 22.3986 66 22.8751C66.4765 23.3516 66.4765 24.1241 66 24.6006C65.5235 25.0771 64.751 25.0771 64.2745 24.6006C63.798 24.1241 63.798 23.3516 64.2745 22.8751Z" fill="white" fill-opacity="0.3"/>
<path d="M22 65.1496C22.4765 64.6732 23.249 64.6732 23.7255 65.1496C24.202 65.6261 24.202 66.3986 23.7255 66.8751C23.249 67.3516 22.4765 67.3516 22 66.8751C21.5235 66.3986 21.5235 65.6261 22 65.1496Z" fill="white" fill-opacity="0.3"/>
<path d="M31.3008 17.7866C31.0399 17.1653 31.3321 16.4501 31.9533 16.1892C32.5746 15.9283 33.2898 16.2205 33.5507 16.8417C33.8116 17.463 33.5195 18.1782 32.8982 18.4391C32.2769 18.7 31.5617 18.4079 31.3008 17.7866Z" fill="white" fill-opacity="0.07"/>
<path d="M54.4493 72.9084C54.1884 72.2871 54.4806 71.572 55.1018 71.311C55.7231 71.0501 56.4383 71.3423 56.6992 71.9636C56.9601 72.5848 56.668 73.3 56.0467 73.5609C55.4254 73.8218 54.7102 73.5297 54.4493 72.9084Z" fill="white" fill-opacity="0.07"/>
<path d="M71.0885 32.1759C71.7098 31.915 72.4249 32.2071 72.6859 32.8284C72.9468 33.4497 72.6546 34.1648 72.0333 34.4258C71.4121 34.6867 70.6969 34.3945 70.436 33.7732C70.1751 33.152 70.4672 32.4368 71.0885 32.1759Z" fill="white" fill-opacity="0.07"/>
<path d="M15.9667 55.3244C16.588 55.0635 17.3031 55.3556 17.564 55.9769C17.8249 56.5982 17.5328 57.3133 16.9115 57.5743C16.2902 57.8352 15.5751 57.543 15.3142 56.9217C15.0533 56.3005 15.3454 55.5853 15.9667 55.3244Z" fill="white" fill-opacity="0.07"/>
<path d="M54.0876 16.7095C54.3405 16.085 55.0519 15.7836 55.6764 16.0365C56.301 16.2894 56.6024 17.0008 56.3495 17.6254C56.0966 18.2499 55.3852 18.5513 54.7606 18.2984C54.1361 18.0455 53.8347 17.3341 54.0876 16.7095Z" fill="white" fill-opacity="0.07"/>
<path d="M31.6505 72.1248C31.9034 71.5002 32.6147 71.1988 33.2393 71.4517C33.8639 71.7046 34.1652 72.416 33.9124 73.0406C33.6595 73.6651 32.9481 73.9665 32.3235 73.7136C31.6989 73.4607 31.3976 72.7493 31.6505 72.1248Z" fill="white" fill-opacity="0.07"/>
<path d="M72.1655 54.9627C72.7901 55.2156 73.0914 55.9269 72.8385 56.5515C72.5856 57.1761 71.8743 57.4774 71.2497 57.2245C70.6251 56.9716 70.3238 56.2603 70.5767 55.6357C70.8296 55.0111 71.5409 54.7098 72.1655 54.9627Z" fill="white" fill-opacity="0.07"/>
<path d="M16.7503 32.5256C17.3749 32.7785 17.6762 33.4898 17.4233 34.1144C17.1704 34.739 16.4591 35.0403 15.8345 34.7874C15.2099 34.5345 14.9086 33.8232 15.1615 33.1986C15.4144 32.574 16.1257 32.2727 16.7503 32.5256Z" fill="white" fill-opacity="0.07"/>
</svg>
