<svg width="161" height="44" viewBox="0 0 161 44" fill="none" xmlns="http://www.w3.org/2000/svg">
<path fill-rule="evenodd" clip-rule="evenodd" d="M160.273 35.2308V22.5154C160.273 17.8385 158.092 15.7923 154.312 15.7923C151.694 15.7923 149.804 16.9615 148.786 18.1308L149.368 20.1769C150.531 18.5692 152.276 17.6923 154.312 17.6923C156.783 17.6923 158.237 19.1538 158.237 22.8077V25.7308H155.766C150.677 25.7308 148.059 28.3615 148.059 33.3308C148.059 37.5692 150.24 40.0538 153.294 40.0538C155.62 40.0538 157.22 38.5923 158.383 36.4C158.528 38.0077 158.819 38.8846 158.964 39.6154H161C160.564 38.7385 160.273 36.9846 160.273 35.2308V35.2308ZM158.237 33.7692C157.365 36.2538 155.911 38.3 153.73 38.3C151.549 38.3 150.095 36.4 150.095 33.0385C150.095 28.9462 151.985 27.1923 155.766 27.1923H158.237V33.7692ZM142.68 37.8615V16.2308H132.647C132.647 16.2308 132.501 23.6846 131.92 29.3846C131.484 33.7692 130.611 36.9846 129.157 37.7154H128.139V44H129.884L130.175 39.4692H142.825L143.116 44H144.861V37.7154H142.68V37.8615ZM140.499 37.8615H131.629C132.792 36.4 133.374 33.9154 133.81 29.9692C134.392 24.5615 134.537 17.9846 134.537 17.9846H140.499V37.8615V37.8615ZM118.834 15.7923C114.763 15.7923 111.709 20.3231 111.709 28.0692C111.709 36.1077 114.763 40.0538 118.834 40.0538C122.905 40.0538 125.958 35.5231 125.958 27.7769C125.958 19.7385 122.905 15.7923 118.834 15.7923V15.7923ZM118.834 38.3C116.217 38.3 113.89 35.2308 113.89 27.9231C113.89 20.7615 116.071 17.5462 118.834 17.5462C121.596 17.5462 123.777 20.6154 123.777 27.9231C123.777 34.9385 121.596 38.3 118.834 38.3ZM109.528 17.9846V16.2308H99.641V39.6154H101.822V17.9846H109.528ZM88.5905 15.7923C84.5193 15.7923 81.4659 20.3231 81.4659 28.0692C81.4659 36.1077 84.5193 40.0538 88.5905 40.0538C92.6617 40.0538 95.7151 35.5231 95.7151 27.7769C95.7151 19.7385 92.5163 15.7923 88.5905 15.7923V15.7923ZM88.5905 38.3C85.8279 38.3 83.6469 35.2308 83.6469 27.9231C83.6469 20.7615 85.8279 17.5462 88.5905 17.5462C91.3531 17.5462 93.5341 20.6154 93.5341 27.9231C93.5341 34.9385 91.3531 38.3 88.5905 38.3ZM75.2136 39.6154H77.5401V6H63V39.6154H65.3264V7.9H75.2136V39.6154Z" fill="#E0E0E1"/>
<path fill-rule="evenodd" clip-rule="evenodd" d="M0.379883 21.8101C0.379883 9.79219 10.1721 0 22.1899 0C34.2079 0 44 9.79219 44 21.8101H0.379883V21.8101Z" fill="#FF3333"/>
<path d="M22.189 24.5363C34.2343 24.5363 43.999 23.3157 43.999 21.81C43.999 20.3043 34.2343 19.0837 22.189 19.0837C10.1436 19.0837 0.378906 20.3043 0.378906 21.81C0.378906 23.3157 10.1436 24.5363 22.189 24.5363Z" fill="#E00000"/>
<path d="M23.1022 19.0861V36.1749C23.1022 37.1391 23.1337 38.3676 23.1987 38.7962C23.4934 40.7419 24.579 41.8031 26.3127 41.8031C28.0465 41.8031 29.4634 40.4394 29.4634 38.1676V37.2588H31.281V38.1676C31.281 40.6717 29.8871 43.6201 26.2828 43.6201C23.9678 43.6201 22.2905 42.3881 21.6317 40.3185C21.4313 39.689 21.2847 37.9307 21.2847 37.1582V19.086C21.8905 19.083 22.4964 19.083 23.1022 19.0861V19.0861Z" fill="#E0E0E1"/>
</svg>
