<svg width="163" height="47" viewBox="0 0 163 47" fill="none" xmlns="http://www.w3.org/2000/svg">
<path fill-rule="evenodd" clip-rule="evenodd" d="M162.258 38V24.95C162.258 20.15 160.033 18.05 156.175 18.05C153.504 18.05 151.576 19.25 150.537 20.45L151.131 22.55C152.318 20.9 154.098 20 156.175 20C158.697 20 160.181 21.5 160.181 25.25V28.25H157.659C152.466 28.25 149.795 30.95 149.795 36.05C149.795 40.4 152.021 42.95 155.136 42.95C157.51 42.95 159.142 41.45 160.329 39.2C160.478 40.85 160.774 41.75 160.923 42.5H163C162.555 41.6 162.258 39.8 162.258 38ZM160.181 36.5C159.291 39.05 157.807 41.15 155.582 41.15C153.356 41.15 151.872 39.2 151.872 35.75C151.872 31.55 153.801 29.75 157.659 29.75H160.181V36.5ZM144.306 40.7V18.5H134.068C134.068 18.5 133.92 26.15 133.326 32C132.881 36.5 131.991 39.8 130.507 40.55H129.469V47H131.249L131.546 42.35H144.454L144.751 47H146.531V40.55H144.306V40.7ZM142.08 40.7H133.03C134.217 39.2 134.81 36.65 135.255 32.6C135.849 27.05 135.997 20.3 135.997 20.3H142.08V40.7ZM119.973 18.05C115.819 18.05 112.703 22.7 112.703 30.65C112.703 38.9 115.819 42.95 119.973 42.95C124.128 42.95 127.243 38.3 127.243 30.35C127.243 22.1 124.128 18.05 119.973 18.05ZM119.973 41.15C117.303 41.15 114.929 38 114.929 30.5C114.929 23.15 117.154 19.85 119.973 19.85C122.792 19.85 125.018 23 125.018 30.5C125.018 37.7 122.792 41.15 119.973 41.15ZM110.478 20.3V18.5H100.389V42.5H102.614V20.3H110.478ZM89.1128 18.05C84.9585 18.05 81.8427 22.7 81.8427 30.65C81.8427 38.9 84.9585 42.95 89.1128 42.95C93.2671 42.95 96.3828 38.3 96.3828 30.35C96.3828 22.1 93.1187 18.05 89.1128 18.05ZM89.1128 41.15C86.2938 41.15 84.0682 38 84.0682 30.5C84.0682 23.15 86.2938 19.85 89.1128 19.85C91.9318 19.85 94.1573 23 94.1573 30.5C94.1573 37.7 91.9318 41.15 89.1128 41.15ZM75.4629 42.5H77.8368V8H63V42.5H65.3739V9.95H75.4629V42.5Z" fill="white" fill-opacity="0.82"/>
<path fill-rule="evenodd" clip-rule="evenodd" d="M0.379883 21.8101C0.379883 9.79218 10.1721 0 22.1899 0C34.2079 0 44 9.79218 44 21.8101H0.379883Z" fill="#FF3333"/>
<path d="M22.189 24.5363C34.2343 24.5363 43.999 23.3157 43.999 21.81C43.999 20.3043 34.2343 19.0837 22.189 19.0837C10.1436 19.0837 0.378906 20.3043 0.378906 21.81C0.378906 23.3157 10.1436 24.5363 22.189 24.5363Z" fill="#E00000"/>
<path d="M23.1022 19.0861V36.1749C23.1022 37.1391 23.1337 38.3676 23.1987 38.7962C23.4934 40.7419 24.579 41.8031 26.3127 41.8031C28.0465 41.8031 29.4634 40.4394 29.4634 38.1676V37.2588H31.281V38.1676C31.281 40.6717 29.8871 43.6201 26.2828 43.6201C23.9678 43.6201 22.2905 42.3881 21.6317 40.3185C21.4313 39.689 21.2847 37.9307 21.2847 37.1582V19.086C21.8905 19.083 22.4964 19.083 23.1022 19.0861Z" fill="white" fill-opacity="0.86"/>
</svg>
